<svg xmlns="http://www.w3.org/2000/svg" width="692" height="692"><path fill-rule="evenodd" fill="#FBFBFD" d="M0 0h692v692H0V0zm281.296 386.888h14.473v-82.619h-14.473c-7.095 4.988-14.472 10.187-21.568 15.175v13.489l21.638-14.894c0 22.903-.07 46.016-.07 68.849zm19.671-82.619v12.505h24.589v70.184h14.683v-70.184h24.589v-12.505h-63.861zm68.006 0v82.619h22.903c12.997 0 23.043.281 30.841-4.918 1.265-.843 2.881-2.108 3.864-3.232 2.178-2.318 3.443-4.636 4.496-8.009 4.426-14.402-4.426-25.994-17.914-27.399v-.562c3.091-.632 4.215-1.124 5.901-2.107 3.794-2.319 6.604-5.55 8.149-10.117 2.67-7.728-.702-16.228-5.058-20.092-2.81-2.53-6.252-4.216-10.468-5.34-4.566-1.124-10.538-.983-16.228-.983l-26.486.14zm15.175 11.522c14.332-.211 28.453-2.389 29.787 9.835.352 3.583-.562 5.059-1.124 6.393-3.583 8.29-15.455 6.815-28.663 6.745v-22.973zm0 33.932c15.807-.07 31.544-2.388 32.949 11.592.211 2.389-.351 5.059-.984 6.604-4.074 9.765-18.406 7.517-31.965 7.447v-25.643z"/></svg>