<svg xmlns="http://www.w3.org/2000/svg" width="585" height="585"><path fill-rule="evenodd" fill="#FBFBFD" d="M0 0h585v585H0V0zm237.801 327.065h12.235v-69.843h-12.235c-5.998 4.217-12.235 8.611-18.233 12.828v11.403l18.292-12.591c0 19.362-.059 38.901-.059 58.203zm16.629-69.843v10.571h20.787v59.332h12.413v-59.332h20.787v-10.571H254.43zm57.491 0v69.843h19.361c10.988 0 19.48.238 26.073-4.157 1.069-.713 2.435-1.782 3.266-2.732 1.841-1.96 2.91-3.92 3.801-6.77 3.742-12.176-3.741-21.975-15.144-23.163v-.475c2.613-.535 3.563-.95 4.989-1.782 3.207-1.96 5.582-4.692 6.889-8.552 2.257-6.533-.594-13.719-4.276-16.986-2.376-2.138-5.286-3.563-8.85-4.513-3.86-.951-8.908-.832-13.719-.832l-22.39.119zm12.828 9.74c12.116-.178 24.054-2.019 25.182 8.315.297 3.029-.475 4.276-.95 5.404-3.029 7.008-13.066 5.761-24.232 5.702v-19.421zm0 28.686c13.363-.06 26.667-2.02 27.855 9.799.178 2.019-.297 4.276-.832 5.583-3.445 8.255-15.56 6.355-27.023 6.295v-21.677z"/></svg>