<svg enable-background="new 0 0 34 44" height="44" viewBox="0 0 34 44" width="34" xmlns="http://www.w3.org/2000/svg"><path d="m0 0h34v44h-34z" fill="none"/><path d="m8.4258 26v-6.457h-.0703l-2.666 6.457h-.8907l-2.666-6.457h-.0703v6.457h-.9844v-8.4551h1.2246l2.8945 7.0547h.0938l2.8945-7.0547h1.2246v8.4551zm8.001 0h-.9609v-.9902h-.0938c-.3164.7031-.9902 1.1016-1.957 1.1016-1.418 0-2.1562-.8438-2.1562-2.3379v-4.0898h1.0078v3.8438c0 1.1367.4219 1.6641 1.4297 1.6641 1.1133 0 1.7227-.6621 1.7227-1.7695v-3.7383h1.0078v6.3162zm3.9873-6.4277c1.3242 0 2.2441.6562 2.3789 1.6934h-.9961c-.1348-.5039-.627-.8379-1.3887-.8379-.75 0-1.3359.3809-1.3359.9434 0 .4336.3516.7031 1.0957.8848l.9727.2344c1.1895.2871 1.7637.8027 1.7637 1.7109 0 1.1309-1.0957 1.9102-2.5312 1.9102-1.4062 0-2.373-.6738-2.4844-1.7227h1.0371c.1699.5332.6738.873 1.4824.873.8496 0 1.459-.4043 1.459-.9844 0-.4336-.3281-.7266-1.002-.8906l-1.084-.2637c-1.1836-.2871-1.7227-.7969-1.7227-1.7109 0-1.0489 1.0137-1.8399 2.3555-1.8399zm3.7768-1.8106c0-.3867.3164-.7031.7031-.7031s.7031.3164.7031.7031-.3164.7031-.7031.7031-.7031-.3164-.7031-.7031zm.1992 1.9219h1.0078v6.3164h-1.0078zm7.0166 1.9336c-.1641-.627-.7207-1.1367-1.6289-1.1367-1.1367 0-1.8516.9082-1.8516 2.3379 0 1.459.7266 2.3848 1.8516 2.3848.8496 0 1.4414-.3926 1.6289-1.1074h1.0195c-.1816 1.1602-1.125 2.0156-2.6426 2.0156-1.7695 0-2.9004-1.2832-2.9004-3.293 0-1.9688 1.125-3.2461 2.8945-3.2461 1.5352 0 2.4727.9199 2.6484 2.0449z" fill="#fff"/></svg>