<svg xmlns="http://www.w3.org/2000/svg" width="75" height="44" viewBox="0 0 75 44">
  <path fill="#FFF" fill-rule="evenodd" d="M69.7295,28.2349 L69.7295,27.3739 C69.8525,27.3969 70.0105,27.4029 70.1515,27.4029 C70.7315,27.4029 71.0475,27.1279 71.3115,26.3659 L71.4285,25.9909 L69.0905,19.6689 L70.1805,19.6689 L71.9155,24.8659 L72.0085,24.8659 L73.7375,19.6689 L74.8095,19.6689 L72.3425,26.3719 C71.8035,27.8369 71.2995,28.2699 70.1805,28.2699 C70.0455,28.2699 69.8705,28.2579 69.7295,28.2349 L69.7295,28.2349 Z M68.0835,25.9849 L67.1235,25.9849 L67.1235,24.9949 L67.0295,24.9949 C66.7125,25.6979 66.0395,26.0959 65.0725,26.0959 C63.6545,26.0959 62.9165,25.2529 62.9165,23.7579 L62.9165,19.6689 L63.9235,19.6689 L63.9235,23.5119 C63.9235,24.6489 64.3455,25.1759 65.3535,25.1759 C66.4665,25.1759 67.0765,24.5139 67.0765,23.4069 L67.0765,19.6689 L68.0835,19.6689 L68.0835,25.9849 Z M58.7055,25.0529 C59.9775,25.0529 60.6455,24.5379 60.6455,23.5589 C60.6455,22.5809 59.9535,22.0829 58.6055,22.0829 L56.6195,22.0829 L56.6195,25.0529 L58.7055,25.0529 Z M56.6195,21.1739 L58.3075,21.1739 C59.5845,21.1739 60.2345,20.7169 60.2345,19.8209 C60.2345,18.9599 59.6255,18.4619 58.5765,18.4619 L56.6195,18.4619 L56.6195,21.1739 Z M55.5645,25.9849 L55.5645,17.5299 L58.7995,17.5299 C60.3525,17.5299 61.3015,18.3439 61.3015,19.6389 C61.3015,20.5179 60.6565,21.3149 59.8425,21.4619 L59.8425,21.5549 C60.9965,21.7019 61.7295,22.4929 61.7295,23.6119 C61.7295,25.0999 60.6625,25.9849 58.8635,25.9849 L55.5645,25.9849 Z M49.3695,22.8269 C49.3695,21.3269 48.6955,20.4649 47.5005,20.4649 C46.3045,20.4649 45.6305,21.3269 45.6305,22.8269 C45.6305,24.3209 46.3045,25.1879 47.5005,25.1879 C48.6955,25.1879 49.3695,24.3209 49.3695,22.8269 L49.3695,22.8269 Z M44.5875,22.8269 C44.5875,20.7939 45.7015,19.5569 47.5005,19.5569 C49.2985,19.5569 50.4125,20.7939 50.4125,22.8269 C50.4125,24.8539 49.2985,26.0959 47.5005,26.0959 C45.7015,26.0959 44.5875,24.8539 44.5875,22.8269 L44.5875,22.8269 Z M41.9725,18.0339 L41.9725,19.6689 L43.3785,19.6689 L43.3785,20.5119 L41.9725,20.5119 L41.9725,24.0869 C41.9725,24.8309 42.2535,25.1469 42.9095,25.1469 C43.0915,25.1469 43.1905,25.1409 43.3785,25.1239 L43.3785,25.9729 C43.1795,26.0079 42.9855,26.0319 42.7865,26.0319 C41.4855,26.0319 40.9645,25.5509 40.9645,24.3439 L40.9645,20.5119 L39.9445,20.5119 L39.9445,19.6689 L40.9645,19.6689 L40.9645,18.0339 L41.9725,18.0339 Z M30.7535,22.3049 L34.2345,22.3049 C34.2105,21.1859 33.5425,20.4479 32.5415,20.4479 C31.5335,20.4479 30.8305,21.1859 30.7535,22.3049 L30.7535,22.3049 Z M35.2125,24.3499 C34.9195,25.4279 33.9355,26.0959 32.5525,26.0959 C30.8005,26.0959 29.7055,24.8309 29.7055,22.8329 C29.7055,20.8459 30.8185,19.5569 32.5525,19.5569 C34.2575,19.5569 35.2945,20.7699 35.2945,22.7329 L35.2945,23.1199 L30.7535,23.1199 L30.7535,23.1669 C30.8065,24.4149 31.5035,25.2059 32.5765,25.2059 C33.3905,25.2059 33.9415,24.9069 34.2055,24.3499 L35.2125,24.3499 Z M25.8755,19.6689 L26.8365,19.6689 L26.8365,20.6059 L26.9305,20.6059 C27.1185,19.9909 27.8445,19.5569 28.6825,19.5569 C28.8465,19.5569 29.0575,19.5689 29.1865,19.5869 L29.1865,20.5939 C29.1045,20.5709 28.7415,20.5359 28.5415,20.5359 C27.5815,20.5359 26.8835,21.1799 26.8835,22.0709 L26.8835,25.9849 L25.8755,25.9849 L25.8755,19.6689 Z M19.7535,22.3049 L23.2345,22.3049 C23.2105,21.1859 22.5425,20.4479 21.5415,20.4479 C20.5335,20.4479 19.8305,21.1859 19.7535,22.3049 L19.7535,22.3049 Z M24.2125,24.3499 C23.9195,25.4279 22.9355,26.0959 21.5525,26.0959 C19.8005,26.0959 18.7055,24.8309 18.7055,22.8329 C18.7055,20.8459 19.8185,19.5569 21.5525,19.5569 C23.2575,19.5569 24.2945,20.7699 24.2945,22.7329 L24.2945,23.1199 L19.7535,23.1199 L19.7535,23.1669 C19.8065,24.4149 20.5035,25.2059 21.5765,25.2059 C22.3905,25.2059 22.9415,24.9069 23.2055,24.3499 L24.2125,24.3499 Z M11.8805,17.1609 L12.8885,17.1609 L12.8885,20.6649 L12.9815,20.6649 C13.2985,19.9669 13.9605,19.5569 14.9275,19.5569 C16.2635,19.5569 17.1065,20.4129 17.1065,21.8949 L17.1065,25.9849 L16.0995,25.9849 L16.0995,22.1409 C16.0995,21.0219 15.5955,20.4649 14.6405,20.4649 C13.5095,20.4649 12.8885,21.1799 12.8885,22.2469 L12.8885,25.9849 L11.8805,25.9849 L11.8805,17.1609 Z M3.5195,25.9849 L2.5235,25.9849 L0.2205,17.5299 L1.3225,17.5299 L3.0035,24.4029 L3.0745,24.4029 L4.9665,17.5299 L6.0335,17.5299 L7.9255,24.4029 L7.9965,24.4029 L9.6775,17.5299 L10.7795,17.5299 L8.4765,25.9849 L7.4805,25.9849 L5.5355,19.3109 L5.4645,19.3109 L3.5195,25.9849 Z"/>
</svg>
