<?xml version="1.0" encoding="utf-8"?>
<!-- Generator: Adobe Illustrator 23.1.1, SVG Export Plug-In . SVG Version: 6.00 Build 0)  -->
<svg version="1.1" id="Artwork" xmlns="http://www.w3.org/2000/svg" xmlns:xlink="http://www.w3.org/1999/xlink" x="0px" y="0px"
	 width="574.1199951px" height="76.7900009px" viewBox="0 0 574.1199951 76.7900009"
	 enable-background="new 0 0 574.1199951 76.7900009" xml:space="preserve">
<g>
	<path d="M372.1004028,32.3515015h8.555603c8.3536072,0,14.0243835-4.9111023,14.0243835-11.7461014
		c0-6.8348999-4.4051819-11.29-13.0116882-11.29c-8.1005859,0-13.9736023,4.3036995-14.5302124,11.5938005h-10.631897
		C357.4177856,8.1513004,367.3913879,0,381.6687012,0c14.8847961,0,24.0488892,8.1513004,24.0488892,19.0361004
		c0,9.1640987-6.429718,15.289999-15.3916016,17.1630993v0.2528992c10.7333984,0.9619026,17.922821,7.4932022,17.922821,17.7206993
		c0,12.8594055-11.2391968,21.6182022-26.4785156,21.6182022c-15.6445007,0-26.125-8.6572037-26.8330078-21.2139015h10.8848267
		c0.5565796,7.1387024,6.7840881,11.7460976,15.9481812,11.7460976c8.9100952,0,14.8847961-5.0624962,14.9355164-12.1503983
		c0.0498047-8.3544998-5.9746094-13.0116997-15.7461243-13.0116997h-8.8592834V32.3515015z"/>
	<g>
		<g>
			<g>
				<g>
					<path d="M0,7.0881C0,3.5948999,2.8349972,0.8098,6.3281999,0.8098c3.4941001,0,6.3290963,2.7851,6.3290963,6.2782998
						c0,3.4424005-2.8349962,6.2773004-6.3290963,6.2773004C2.8349972,13.3654003,0,10.5305004,0,7.0881z M0.8604,21.1623001
						h10.9354954v53.2617035H0.8604V21.1623001z"/>
					<path d="M51.6944008,1.3664c14.1757011,0,24.047802,9.7715006,24.047802,23.9981003
						c0,14.2772999-10.0742035,24.0995998-24.4023094,24.0995998H35.6445961v24.9599037H24.3036995V1.3664H51.6944008z
						 M35.6445961,39.9454994h13.0117035c9.8730011,0,15.4921913-5.3153992,15.4921913-14.5303001
						c0-9.2137985-5.6191902-14.4794989-15.4413948-14.4794989h-13.0625V39.9454994z"/>
					<path d="M83.5175934,1.3664h10.8350067v28.7070007h0.2528992c2.9365005-6.2275009,8.7587967-9.8222008,16.8593979-9.8222008
						c11.6953049,0,18.6816025,7.7968006,18.6816025,19.8467007v34.3261032H119.160202V42.2238007
						c0-7.8466988-3.9492111-12.5556011-11.6445007-12.5556011c-8.1006012,0-13.0625,5.5692997-13.0625,13.9736004v30.7822037
						H83.5175934V1.3664z"/>
					<path d="M137.7861938,47.7932014c0-17.1123009,10.0752106-27.592802,25.2636108-27.592802
						c15.1884918,0,25.2637024,10.4805012,25.2637024,27.592802c0,17.1629982-10.0244141,27.6434975-25.2637024,27.6434975
						C147.8105927,75.4366989,137.7861938,64.9561996,137.7861938,47.7932014z M177.1748047,47.7932014
						c0-11.7959023-5.5693054-18.580101-14.125-18.580101c-8.5566101,0-14.1259003,6.7841988-14.1259003,18.580101
						c0,11.847599,5.5692902,18.6318016,14.1259003,18.6318016
						C171.6562958,66.4250031,177.1748047,59.6408005,177.1748047,47.7932014z"/>
					<path d="M196.4629059,21.1623001h10.4296875v8.9111004h0.2528992c2.8858032-6.075201,8.5567017-9.8222008,16.7588043-9.8222008
						c11.7451019,0,18.4794922,7.4931011,18.4794922,19.6942997v34.4785042h-10.9873047V42.0724983
						c0-7.9990997-3.7460785-12.4042988-11.3407898-12.4042988c-7.6952972,0-12.6562958,5.4676991-12.6562958,13.7207012v31.0351028
						h-10.9364929V21.1623001z"/>
					<path d="M298.069397,58.7794991c-1.5185852,9.7206993-10.7333984,16.6571999-22.9346008,16.6571999
						c-15.6445007,0-25.1112976-10.5810013-25.1112976-27.3905983c0-16.7070007,9.6191101-27.8457012,24.656189-27.8457012
						c14.7832031,0,23.9971008,10.4297009,23.9971008,26.5800991v3.7470016h-37.6161804v0.6581993
						c0,9.2647018,5.5682983,15.3907013,14.3270874,15.3907013c6.2276001,0,10.8349915-3.1387024,12.3027954-7.7969017H298.069397z
						 M261.1104126,42.882h26.6307983c-0.2528992-8.1503983-5.4170227-13.8719997-13.0615234-13.8719997
						C267.0341797,29.0100002,261.6679993,34.8321991,261.1104126,42.882z"/>
					<path d="M460.5625,1.3664c14.1756897,0,24.0477905,9.7715006,24.0477905,23.9981003
						c0,14.2772999-10.0741882,24.0995998-24.4022827,24.0995998h-15.6954346v24.9599037H433.171814V1.3664H460.5625z
						 M444.5125732,39.9454994h13.0118103c9.8729858,0,15.492218-5.3153992,15.492218-14.5303001
						c0-9.2137985-5.6192322-14.4794989-15.4415283-14.4794989h-13.0625V39.9454994z"/>
					<path d="M493.2246094,21.1623001h10.4295959v9.0625h0.2529907c1.7723999-6.2266006,6.531189-9.9228001,12.8094788-9.9228001
						c1.569397,0,2.9365845,0.2528992,3.7461548,0.4051991v10.1758003c-0.8603516-0.3544998-2.7841187-0.607399-4.9111328-0.607399
						c-7.0371094,0-11.3905945,4.7089996-11.3905945,12.2518997v31.8965034h-10.9364929V21.1623001z"/>
					<path d="M522.593689,47.7932014c0-17.1123009,10.0751953-27.592802,25.2637329-27.592802
						c15.1884766,0,25.2635498,10.4805012,25.2635498,27.592802c0,17.1629982-10.024353,27.6434975-25.2635498,27.6434975
						C532.618103,75.4366989,522.593689,64.9561996,522.593689,47.7932014z M561.9824219,47.7932014
						c0-11.7959023-5.569397-18.580101-14.125-18.580101c-8.5567627,0-14.1260376,6.7841988-14.1260376,18.580101
						c0,11.847599,5.5692749,18.6318016,14.1260376,18.6318016
						C556.4638062,66.4250031,561.9824219,59.6408005,561.9824219,47.7932014z"/>
				</g>
			</g>
		</g>
		<g>
			<polygon points="332.6238098,1.4125 317.6710815,11.7586002 317.6710815,22.9160004 332.581604,12.3219004 
				332.7239075,12.3219004 332.7239075,74.4240036 343.6933899,74.4240036 343.6933899,1.4125 			"/>
		</g>
	</g>
</g>
<g>
</g>
<g>
</g>
<g>
</g>
<g>
</g>
<g>
</g>
</svg>
